inDegrees=no
num_controls=7
num_derivatives=13
num_iterations=114
num_multipliers=7
num_parameters=0
num_slacks=7
num_states=26
objective=0.497122
objective_accelerations=0.032223
objective_balance=0.003252
objective_effort=0.034984
objective_height=0.421185
objective_ligament=0.005478
solver_duration=1298.452799
status=Solve_Succeeded
success=true
DataType=double
version=3
OpenSimVersion=4.5
endheader
time	/jointset/ground_pelvis/pelvis_tilt/value	/jointset/ground_pelvis/pelvis_tx/value	/jointset/ground_pelvis/pelvis_ty/value	/jointset/hip_r/hip_flexion_r/value	/jointset/hip_r/hip_adduction_r/value	/jointset/hip_r/hip_rotation_r/value	/jointset/back/lumbar_extension/value	/jointset/patellofemoral_r/patellar_flexion_r/value	/jointset/knee_r/knee_flexion_r/value	/jointset/knee_r/knee_adduction_r/value	/jointset/knee_r/knee_rotation_r/value	/jointset/ankle_r/ankle_angle_r/value	/jointset/subtalar_r/subtalar_angle_r/value	/jointset/ground_pelvis/pelvis_tilt/speed	/jointset/ground_pelvis/pelvis_tx/speed	/jointset/ground_pelvis/pelvis_ty/speed	/jointset/hip_r/hip_flexion_r/speed	/jointset/hip_r/hip_adduction_r/speed	/jointset/hip_r/hip_rotation_r/speed	/jointset/back/lumbar_extension/speed	/jointset/patellofemoral_r/patellar_flexion_r/speed	/jointset/knee_r/knee_flexion_r/speed	/jointset/knee_r/knee_adduction_r/speed	/jointset/knee_r/knee_rotation_r/speed	/jointset/ankle_r/ankle_angle_r/speed	/jointset/subtalar_r/subtalar_angle_r/speed	/forceset/tau_hip_flexion_r	/forceset/tau_hip_adduction_r	/forceset/tau_hip_rotation_r	/forceset/tau_knee_flexion_r	/forceset/tau_ankle_angle_r	/forceset/tau_subtalar_angle_r	/forceset/tau_lumbar_extension	lambda_cid13_p0	lambda_cid14_p0	lambda_cid14_p1	lambda_cid14_p2	lambda_cid14_p3	lambda_cid14_p4	lambda_cid14_p5	/jointset/ground_pelvis/pelvis_tilt/accel	/jointset/ground_pelvis/pelvis_tx/accel	/jointset/ground_pelvis/pelvis_ty/accel	/jointset/hip_r/hip_flexion_r/accel	/jointset/hip_r/hip_adduction_r/accel	/jointset/hip_r/hip_rotation_r/accel	/jointset/back/lumbar_extension/accel	/jointset/patellofemoral_r/patellar_flexion_r/accel	/jointset/knee_r/knee_flexion_r/accel	/jointset/knee_r/knee_adduction_r/accel	/jointset/knee_r/knee_rotation_r/accel	/jointset/ankle_r/ankle_angle_r/accel	/jointset/subtalar_r/subtalar_angle_r/accel	gamma_cid13_p0	gamma_cid14_p0	gamma_cid14_p1	gamma_cid14_p2	gamma_cid14_p3	gamma_cid14_p4	gamma_cid14_p5
0	-0.006515364194279901	0.09626029013184204	0.9427240701600955	0.1762555222360518	-0.2321527383963322	-0.2616403335537349	-0.038598046466844	0.07317863873451018	0.07317863873451017	0.1745328220012543	0.1745326099557628	0.03247278518263602	-0.003452032765323132	0	0	0	0	0	0	0	0	0	0	0	0	0	0.2155352428836192	-0.1519437393566715	-0.04339416587843701	-0.4005655433258011	0.4021058420362259	-0.1516399419253847	-0.1125264989626849	-39.07623974428583	79.22784750150454	-42.15216802953017	-4.051287717644182	-36.11173865477073	-679.6149277353891	51.11399796874991	-1.244890857476822	-0.8397844248849946	-0.4865402191153316	7.336379184333203	0.2050654121958557	2.301370106979057	-4.821030218972256	8.434044389141368	8.434044389141336	-2.691677501472228	0.09718754107451158	3.139555383743252	0.9230481586123674	9.267418363729164e-08	5.342400240890979e-08	-6.26663492977956e-07	1.57064873518023e-07	2.813848810564986e-08	3.154808435221035e-08	-2.735262224308568e-07
0.01	-0.006572890829503551	0.09622070065971755	0.942700797610456	0.1766086249713256	-0.2321411477339673	-0.2615184439342847	-0.03884070051789424	0.07358850229556643	0.07358850229556645	0.174397934100439	0.1745272779471364	0.03262840603762906	-0.003404853507965625	-0.01152225322573521	-0.007703373021151625	-0.004639783583574834	0.07015620481719768	0.002282107136540885	0.02414247063122369	-0.0481998612633496	0.08162759845585264	0.08162759845585216	-0.02678677781199542	-0.0009336886061714566	0.03119823338381175	0.009418845087849025	0.2183081214101571	-0.1687735787782539	-0.0445846960723878	-0.4103848334270741	0.4163810585424103	-0.140904266462684	-0.1136235620568851	-39.08982291029949	84.25280131767984	-36.70202242247	-4.81488632753608	-41.52578408625818	-680.523121643631	62.63186832472346	-1.108427063480754	-0.7034299024721266	-0.4504821667129537	6.785594335900994	0.2343073175121294	2.435409355724627	-4.769821738010889	7.975331975660557	7.975331975660514	-2.643641239683791	-0.1686886274433259	3.121084483349912	0.9486707715303933	1.155936158780642e-07	5.488144680465781e-08	-7.72255444460061e-07	1.810211496792674e-07	5.303004530634563e-08	-1.078254750306262e-07	-3.535088580114593e-07
0.02	-0.006746146898656334	0.09611051422503317	0.9426315702772339	0.1776493603958691	-0.2321078312096113	-0.2611621848456162	-0.03955542471317688	0.0748042847215519	0.07480428472155189	0.1740008857577797	0.1745166007392525	0.03309823465999018	-0.003264012182197782	-0.02314588678582569	-0.01411939251197861	-0.009190956716525546	0.1375265378539131	0.004345172398238777	0.04687389384367145	-0.09441402884648224	0.1611837729858392	0.1611837729858387	-0.05243208836881454	-0.00106903985155698	0.06284155347361453	0.01873241368206698	0.2210809999366952	-0.1856034181998363	-0.0457752262663385	-0.4202041235283471	0.4306562750485947	-0.1301685909999833	-0.1147206251510852	-39.13004478397298	89.35307280458933	-31.26151568217703	-5.550873139015784	-47.11702743772089	-680.2880014073315	73.92245500052967	-1.265166924347878	-0.5823137188200673	-0.4688181289905071	6.779204828236753	0.1612570372272569	2.01916062322387	-4.423891482928867	8.019759603968147	8.019759603968206	-2.463384050436968	0.2568550132316979	3.228572724941456	0.9019928598861526	1.385130481188367e-07	5.633889120040583e-08	-9.178473959421661e-07	2.049774258405119e-07	7.79216025070414e-08	-2.471990344134627e-07	-4.334914935920619e-07
0.03	-0.007035466419709147	0.09594009838666943	0.9425169869236003	0.1793523209449387	-0.2320554781011816	-0.2605865396529206	-0.04072193419752038	0.076805889915745	0.07680588991574495	0.1733541705422264	0.1745093421529382	0.03388364940147844	-0.00303178084505154	-0.03462877548650292	-0.01999851204420691	-0.0137318359791485	0.2027916723118076	0.006066107740172147	0.06820941113933497	-0.1385534728686603	0.2387771540938133	0.2387771540938143	-0.07667107734725234	-0.0004638639107677997	0.09400456970090597	0.02759843230124285	0.2119983315360979	-0.1921534461031012	-0.04300919816826262	-0.4061883773732476	0.4066203028847287	-0.1153994723506194	-0.1079038858644609	-39.1960539125763	82.21035172431291	-26.18904048196262	-6.255490154685955	-42.22051401863921	-679.6859621103074	82.63680643652269	-1.07644879119224	-0.5959059180535842	-0.4476911231682587	6.359092304155918	0.1685148628804844	2.183942079681192	-4.358811588945954	7.575082805154555	7.575082805154725	-2.36829501826263	-0.04976027324038993	3.024668757444071	0.8614716676742582	1.639989760825133e-07	6.413134382449234e-08	-1.087183314564853e-06	2.307698213924496e-07	9.476574547103708e-08	-3.297962545961072e-07	-5.054532034089202e-07
0.04	-0.007436934617426367	0.09570985238345756	0.9423568011176862	0.1816997177485054	-0.2319877150232917	-0.2597989003278797	-0.04231980626749512	0.07957262000920633	0.07957262000920629	0.1724722376975456	0.1745057134944833	0.03497359484240384	-0.002714376260765344	-0.04557562211870043	-0.02608542548161026	-0.01831144717264802	0.2664137887533068	0.00742716629026982	0.08927272031274243	-0.1806865459727341	0.3142087528394877	0.3142087528394895	-0.09947561419430796	-0.0003430542796953327	0.1237476933610407	0.0357670631100569	0.2029156631356224	-0.1987034740063662	-0.04024317007018651	-0.3921726312181481	0.3825843307208626	-0.1006303537012555	-0.1010871465778364	-39.28658278868905	75.13646418946657	-21.11571873053952	-6.9474421419875	-37.49848043308862	-678.0619590950281	91.16439101958656	-1.157958510651934	-0.6238724998550802	-0.4765645151658186	6.450601224957689	0.08928167886011674	1.964718998772658	-4.022617299308028	7.587403131508195	7.587403131508133	-2.176493624160537	0.1599817512883567	2.944594211510122	0.76251529781379	1.895378214837755e-07	7.205441517493635e-08	-1.257008799520336e-06	2.566000750761542e-07	1.114439623682967e-07	-4.112228286096756e-07	-5.77249533313124e-07
0.05	-0.007945844065033051	0.09541825750711516	0.9421504863781484	0.1846754270359631	-0.2319078553020428	-0.2588039975522347	-0.04432906881773924	0.08308354806047027	0.08308354806047025	0.1713690080367211	0.1745027612391609	0.03635477427797715	-0.00231821259840732	-0.05614954128974719	-0.03221011553277105	-0.02296606268446952	0.3284111067034792	0.008503710814923902	0.1095761254553017	-0.2208720151168324	0.387607440306282	0.3876074403062835	-0.1209450318936981	-0.0002662163132814017	0.1523149425671069	0.04338700367777429	0.1967177023944418	-0.1833673128080987	-0.03861419018731273	-0.3849962427997468	0.3738489450080528	-0.1090131484667621	-0.09621287419278902	-39.40002027336823	72.07392130885574	-25.32227126310832	-6.242906245160912	-35.36011719059258	-677.1293744449673	81.39632099591169	-0.9985782775020779	-0.6032296960668425	-0.4621772641831009	6.0267657244408	0.1105472902867969	2.043466516965996	-3.972419378071221	7.160650874273774	7.160650874273776	-2.09854094370651	-0.07119827601864694	2.786839752134415	0.7497640161282928	1.831389318927755e-07	6.450008602044083e-08	-1.205969919443249e-06	2.345266966849771e-07	1.146045059854178e-07	-4.769177269322604e-07	-5.522777984542984e-07
0.06	-0.00855878663578444	0.09506612324259708	0.9418971720444939	0.1882616032318014	-0.2318184888453436	-0.2576099976761705	-0.04673136759064646	0.0873173728504039	0.08731737285040392	0.1700578091787271	0.1745000307444353	0.03801643610100702	-0.001848243414396586	-0.06638224674763506	-0.03819330311674256	-0.02771136599600437	0.3885071704294031	0.009328513380327712	0.1290921403965983	-0.2592937905053507	0.4587881005734255	0.4587881005734271	-0.1410694536282185	-0.0002987021603298324	0.1798441708523551	0.0505281674405948	0.1905197416532614	-0.1680311516098322	-0.03698521030443895	-0.3778198543813452	0.365113559295243	-0.1173959432322687	-0.09133860180774148	-39.5345207849828	69.07411937009762	-29.54400957886561	-5.506054592410909	-33.37023118765579	-675.2342453934115	71.42065023664323	-1.089715768020154	-0.5955720064172273	-0.4947020751086821	6.070350380107999	0.03893328701006266	1.807240958520124	-3.669878548192077	7.143797691578055	7.143797691578057	-1.907494431186593	0.138116988595881	2.736990027346531	0.6667599368344089	1.753952955652593e-07	5.629407684468472e-08	-1.145631487154264e-06	2.104363232590683e-07	1.171958844117961e-07	-5.419502389099616e-07	-5.232316187633453e-07
0.07000000000000001	-0.009272672671723164	0.09465488398938539	0.9415958030237711	0.1924399570797813	-0.2317221807456512	-0.2562264843713206	-0.04950869663399295	0.09225291025778393	0.09225291025778397	0.1685521929353894	0.1744982497491988	0.03994851701786425	-0.001309200305480093	-0.07632883611985453	-0.044027159404074	-0.03258392246316561	0.4468472433720608	0.009910401416041778	0.1474833111504014	-0.295883027461867	0.5279673070418718	0.5279673070418787	-0.159862346410075	-8.992631823197034e-05	0.2064170656356979	0.0572264420279128	0.1839121321064136	-0.1615390927307135	-0.03510706036039927	-0.3708827177443513	0.3543252691136902	-0.1169109664665267	-0.0861329696469095	-39.68817973694187	65.72329581645434	-30.02165201569819	-5.313896251731458	-31.36710533799306	-673.8458808502419	68.91798246518266	-0.9371882287692647	-0.5731607510763669	-0.4868642580313517	5.668395287572198	0.06429238449754726	1.836034279536757	-3.610097664068447	6.752136060175181	6.752136060175892	-1.836622348701647	-0.04253080949304302	2.594231927273945	0.6631035104111547	1.600259879059342e-07	4.643650729593139e-08	-1.030528245201004e-06	1.848166022348541e-07	1.140130241877409e-07	-5.808349140296291e-07	-4.773932337374619e-07
